<svg xmlns="http://www.w3.org/2000/svg" viewBox="0 0 44.732 44">
  <path fill-rule="evenodd" fill="currentColor" d="
    m43.532 0h-42.334c-0.31784 0-0.62266 0.12419-0.8474 0.34526-0.22475 0.22106-0.35101 0.52089-0.35101 0.83352v18.153c9.8099-0.0124 13.041-2.3467 16.778-5.0502 3.9182-2.8347 8.3589-6.0477 19.747-6.0477v5.5833c-9.5256 0-12.703 2.2986-16.384 4.9614-3.9679 2.8715-8.4656 6.1229-20.141 6.1362v17.904c0.0071346 0.096 0.026356 0.1909 0.057224 0.2823 7.5566-0.0422 9.3503-3.5912 12.048-8.9517 3.336-6.6306 7.49-14.882 24.418-14.882v5.5833c-13.407 0-16.153 5.4566-19.332 11.775-1.2688 2.5209-2.6182 5.1867-4.7103 7.3739h31.052c0.3182-1e-4 0.6234-0.1245 0.8484-0.3458s0.3514-0.5215 0.3515-0.8345v-41.641c-4e-4 -0.31277-0.127-0.61259-0.352-0.83361s-0.5299-0.34517-0.8479-0.34517z
    m36.524 13.817v-5.5824c-11.388 0-15.828 3.2128-19.746 6.0478-3.7358 2.7035-6.9673 5.0393-16.778 5.0502v5.5821c11.675-0.0142 16.173-3.265 20.14-6.1356 3.6782-2.6631 6.8585-4.962 16.384-4.962z
    m17.192 36.626c3.1788-6.3186 5.9246-11.775 19.333-11.775v-5.5821c-16.931 0-21.083 8.2515-24.42 14.882-2.6964 5.3599-4.4904 8.9095-12.047 8.9517 0.060308 0.2538 0.20558 0.4803 0.41248 0.6431 0.2069 0.1629 0.46343 0.2526 0.72841 0.2548h11.283c2.0925-2.1866 3.4416-4.8533 4.7104-7.3739
  "/>
</svg>
